<svg xmlns="http://www.w3.org/2000/svg" width="512" height="512" viewBox="0 0 512 512">
<g>
<path d="M 0.02 356.50 L 0.00 512.00 L 0.00 0.00 L 0.06 40.25 C0.11,67.81 0.44,79.71 1.11,78.00 C3.09,72.99 7.46,67.81 11.93,65.19 L 16.50 62.50 L 230.96 62.24 C247.58,62.22 262.95,62.20 277.17,62.18 C443.08,61.95 452.27,61.94 456.32,66.50 C456.90,67.15 457.38,67.91 458.21,68.77 C459.75,70.38 460.97,71.48 461.93,72.76 C465.52,77.57 465.55,85.03 465.74,131.94 C465.75,135.63 465.77,139.56 465.78,143.75 L 466.07 208.00 L 451.00 208.00 L 451.00 144.38 C451.00,88.84 451.00,81.28 447.50,78.92 C446.90,78.52 446.20,78.27 445.39,77.96 C441.61,76.52 25.25,76.67 21.12,78.11 C20.20,78.43 19.42,78.57 18.75,78.93 C14.98,80.95 14.98,89.99 15.00,178.71 C15.00,184.30 15.00,190.21 15.00,196.45 L 15.00 308.00 L 361.03 308.00 L 360.76 338.75 L 360.50 369.50 L 292.82 369.76 L 225.14 370.01 L 224.82 372.26 C224.64,373.49 224.63,384.06 224.79,395.75 L 225.08 417.00 L 280.71 417.00 C331.07,417.00 336.52,417.16 338.17,418.65 C339.76,420.10 340.00,421.99 340.00,433.33 C340.00,444.03 339.71,446.67 338.35,448.17 C336.76,449.92 332.17,450.00 232.47,450.00 C136.74,450.00 128.13,449.87 126.87,448.35 C125.86,447.13 125.50,443.18 125.50,433.27 C125.50,421.13 125.69,419.70 127.44,418.42 C129.02,417.27 135.23,417.00 160.69,417.00 L 192.00 417.00 L 192.00 370.04 L 102.25 369.77 L 12.50 369.50 L 8.76 367.18 C6.71,365.90 3.90,362.97 2.52,360.68 ZM 456.00 265.00 L 456.00 288.00 L 439.87 288.00 L 440.18 264.42 C440.48,242.43 440.63,240.74 442.44,239.42 C445.34,237.30 451.62,237.62 454.00,240.00 C455.88,241.88 456.00,243.33 456.00,265.00 ZM 416.60 161.90 C414.01,164.76 407.99,164.76 405.40,161.90 C403.68,160.00 403.47,157.82 403.23,139.15 C402.93,116.87 403.30,114.81 408.08,112.13 C411.66,110.12 415.61,111.35 417.54,115.07 C418.85,117.62 419.06,121.53 418.81,138.96 C418.53,157.79 418.32,160.00 416.60,161.90 ZM 283.60 161.90 C281.18,164.56 276.03,164.66 272.86,162.09 C270.54,160.21 270.50,159.86 270.19,139.44 C269.85,116.52 270.32,113.94 275.22,111.91 C277.75,110.86 278.72,110.89 280.87,112.10 C285.68,114.80 286.05,116.84 285.77,139.15 C285.53,157.83 285.32,159.99 283.60,161.90 ZM 331.96 161.81 C329.31,164.65 323.75,164.75 321.00,162.00 C319.12,160.12 319.00,158.67 319.00,137.95 L 319.00 115.91 L 321.45 113.45 C324.58,110.33 328.42,110.33 331.55,113.45 L 334.00 115.91 L 334.00 137.77 C334.00,158.38 333.88,159.75 331.96,161.81 ZM 356.00 162.00 C353.02,164.98 347.67,164.67 345.07,161.37 C343.12,158.89 343.00,157.46 343.00,137.48 C343.00,118.70 343.20,115.98 344.75,114.11 C347.42,110.90 351.98,110.41 355.27,112.99 L 358.00 115.15 L 358.00 137.57 C358.00,158.67 357.88,160.12 356.00,162.00 ZM 259.00 162.00 C256.02,164.98 250.67,164.67 248.07,161.37 C246.12,158.89 246.00,157.46 246.00,137.48 C246.00,113.83 246.31,112.62 252.68,111.39 C255.25,110.90 256.36,111.27 258.43,113.34 L 261.00 115.91 L 261.00 137.95 C261.00,158.67 260.88,160.12 259.00,162.00 ZM 392.44 161.78 C390.11,165.11 383.84,164.88 381.07,161.37 C379.13,158.90 379.00,157.45 379.00,138.41 C379.00,116.80 379.50,114.01 383.66,112.11 C387.08,110.55 388.36,110.71 391.37,113.07 L 394.00 115.15 L 394.00 137.35 C394.00,155.83 393.74,159.93 392.44,161.78 ZM 307.93 161.37 C305.32,164.68 299.98,164.98 296.98,161.98 C295.06,160.06 294.98,158.89 295.23,137.34 L 295.50 114.71 L 298.13 112.75 C300.09,111.29 301.56,110.96 303.90,111.48 C309.40,112.69 310.00,115.31 310.00,138.32 C310.00,157.45 309.87,158.89 307.93,161.37 ZM 432.00 280.62 L 432.00 289.00 L 425.67 289.00 C422.18,289.00 419.03,288.70 418.67,288.33 C418.30,287.97 418.00,284.57 418.00,280.79 C418.00,274.82 418.32,273.58 420.45,271.45 C423.31,268.60 426.07,268.35 429.54,270.62 C431.83,272.12 432.00,272.81 432.00,280.62 Z" fill="rgb(85,105,115)"/>
<path d="M 201.42 266.09 C199.75,267.94 197.35,268.00 129.57,268.00 C67.72,268.00 59.18,267.82 57.22,266.44 L 55.00 264.89 L 55.00 193.51 C55.00,129.96 55.17,121.97 56.57,120.57 C57.97,119.17 65.96,119.00 129.45,119.00 C188.33,119.00 200.95,119.24 201.88,120.36 C202.70,121.34 203.03,141.64 203.08,192.95 C203.15,259.14 203.03,264.31 201.42,266.09 ZM 477.15 290.41 C476.69,290.69 473.59,291.17 470.27,291.48 C465.32,291.92 464.11,291.73 463.61,290.43 C463.28,289.55 463.00,280.75 463.00,270.87 C463.00,253.13 463.03,252.88 465.45,250.45 C466.80,249.10 469.08,248.00 470.50,248.00 C471.92,248.00 474.20,249.10 475.55,250.45 C477.97,252.88 478.00,253.10 478.00,271.40 C478.00,281.56 477.62,290.12 477.15,290.41 ZM 411.79 279.28 L 411.50 288.50 L 403.75 288.79 L 396.00 289.08 L 396.00 278.51 C396.00,265.56 397.35,261.52 402.03,260.49 C406.12,259.60 410.07,262.32 411.24,266.86 C411.70,268.62 411.95,274.21 411.79,279.28 ZM 453.00 294.50 C451.70,296.07 451.29,296.16 449.25,295.34 C446.89,294.39 448.00,293.00 451.12,293.00 C453.78,293.00 454.06,293.22 453.00,294.50 ZM 486.30 327.51 C485.96,329.25 483.00,329.24 483.00,327.50 C483.00,326.47 483.66,325.98 484.75,326.19 C485.71,326.38 486.41,326.97 486.30,327.51 ZM 436.00 294.00 C436.00,294.55 435.33,295.00 434.50,295.00 C433.67,295.00 433.00,294.55 433.00,294.00 C433.00,293.45 433.67,293.00 434.50,293.00 C435.33,293.00 436.00,293.45 436.00,294.00 Z" fill="rgb(227,147,86)"/>
<path d="M 360.65 308.00 L 15.00 308.00 L 15.00 196.45 C15.00,190.21 15.00,184.30 15.00,178.71 C14.98,89.99 14.98,80.95 18.75,78.93 C19.42,78.57 20.20,78.43 21.12,78.11 C25.25,76.67 441.61,76.52 445.39,77.96 C446.20,78.27 446.90,78.52 447.50,78.92 C449.15,80.03 450.03,82.31 450.49,90.27 L 450.25 145.75 L 449.98 208.00 L 406.03 208.00 C364.84,208.00 362.01,208.11 361.11,209.79 C360.52,210.90 360.31,241.76 360.56,291.54 C360.59,297.07 360.62,302.58 360.65,308.00 ZM 0.02 356.50 L 2.52 360.68 C3.90,362.97 6.71,365.90 8.76,367.18 L 12.50 369.50 L 102.25 369.77 L 192.00 370.04 L 192.00 417.00 L 160.69 417.00 C135.23,417.00 129.02,417.27 127.44,418.42 C125.69,419.70 125.50,421.13 125.50,433.27 C125.50,443.18 125.86,447.13 126.87,448.35 C128.13,449.87 136.74,450.00 232.47,450.00 C332.17,450.00 336.76,449.92 338.35,448.17 C339.71,446.67 340.00,444.03 340.00,433.33 C340.00,421.99 339.76,420.10 338.17,418.65 C336.52,417.16 331.07,417.00 280.71,417.00 L 273.00 417.00 L 273.00 370.00 L 228.81 370.00 L 292.82 369.76 L 360.50 369.50 L 360.76 338.75 L 360.78 336.48 C360.90,361.34 360.98,380.66 360.99,385.68 C361.00,398.30 361.19,399.91 362.75,400.39 C363.71,400.68 376.61,400.72 391.41,400.46 C406.21,400.21 439.40,400.00 465.16,400.00 L 512.00 400.00 L 512.00 512.00 L 0.00 512.00 ZM 450.55 91.37 C451.00,100.45 451.00,116.27 451.00,144.38 L 451.00 208.00 L 466.07 208.00 L 465.78 143.75 C465.77,139.56 465.75,135.63 465.74,131.94 C465.55,85.03 465.52,77.57 461.93,72.76 C460.97,71.48 459.75,70.38 458.21,68.77 C457.38,67.91 456.90,67.15 456.32,66.50 C452.27,61.94 443.08,61.95 277.17,62.18 C262.95,62.20 247.58,62.22 230.96,62.24 L 16.50 62.50 L 11.93 65.19 C7.46,67.81 3.09,72.99 1.11,78.00 C0.44,79.71 0.11,67.81 0.06,40.25 L 0.00 0.00 L 512.00 0.00 L 512.00 304.50 C512.00,214.27 511.90,208.99 510.25,208.85 C505.19,208.41 499.32,208.28 476.25,208.15 L 451.00 208.00 L 450.76 145.75 ZM 201.42 266.09 C203.03,264.31 203.15,259.14 203.08,192.95 C203.03,141.64 202.70,121.34 201.88,120.36 C200.95,119.24 188.33,119.00 129.45,119.00 C65.96,119.00 57.97,119.17 56.57,120.57 C55.17,121.97 55.00,129.96 55.00,193.51 L 55.00 264.89 L 57.22 266.44 C59.18,267.82 67.72,268.00 129.57,268.00 C197.35,268.00 199.75,267.94 201.42,266.09 ZM 416.60 161.90 C418.32,160.00 418.53,157.79 418.81,138.96 C419.06,121.53 418.85,117.62 417.54,115.07 C415.61,111.35 411.66,110.12 408.08,112.13 C403.30,114.81 402.93,116.87 403.23,139.15 C403.47,157.82 403.68,160.00 405.40,161.90 C407.99,164.76 414.01,164.76 416.60,161.90 ZM 283.60 161.90 C285.32,159.99 285.53,157.83 285.77,139.15 C286.05,116.84 285.68,114.80 280.87,112.10 C278.72,110.89 277.75,110.86 275.22,111.91 C270.32,113.94 269.85,116.52 270.19,139.44 C270.50,159.86 270.54,160.21 272.86,162.09 C276.03,164.66 281.18,164.56 283.60,161.90 ZM 331.96 161.81 C333.88,159.75 334.00,158.38 334.00,137.77 L 334.00 115.91 L 331.55 113.45 C328.42,110.33 324.58,110.33 321.45,113.45 L 319.00 115.91 L 319.00 137.95 C319.00,158.67 319.12,160.12 321.00,162.00 C323.75,164.75 329.31,164.65 331.96,161.81 ZM 356.00 162.00 C357.88,160.12 358.00,158.67 358.00,137.57 L 358.00 115.15 L 355.27 112.99 C351.98,110.41 347.42,110.90 344.75,114.11 C343.20,115.98 343.00,118.70 343.00,137.48 C343.00,157.46 343.12,158.89 345.07,161.37 C347.67,164.67 353.02,164.98 356.00,162.00 ZM 259.00 162.00 C260.88,160.12 261.00,158.67 261.00,137.95 L 261.00 115.91 L 258.43 113.34 C256.36,111.27 255.25,110.90 252.68,111.39 C246.31,112.62 246.00,113.83 246.00,137.48 C246.00,157.46 246.12,158.89 248.07,161.37 C250.67,164.67 256.02,164.98 259.00,162.00 ZM 392.44 161.78 C393.74,159.93 394.00,155.83 394.00,137.35 L 394.00 115.15 L 391.37 113.07 C388.36,110.71 387.08,110.55 383.66,112.11 C379.50,114.01 379.00,116.80 379.00,138.41 C379.00,157.45 379.13,158.90 381.07,161.37 C383.84,164.88 390.11,165.11 392.44,161.78 ZM 307.93 161.37 C309.87,158.89 310.00,157.45 310.00,138.32 C310.00,115.31 309.40,112.69 303.90,111.48 C301.56,110.96 300.09,111.29 298.13,112.75 L 295.50 114.71 L 295.23 137.34 C294.98,158.89 295.06,160.06 296.98,161.98 C299.98,164.98 305.32,164.68 307.93,161.37 Z" fill="rgb(237,250,253)"/>
<path d="M 224.79 395.75 C224.63,384.06 224.64,373.49 224.82,372.25 L 225.14 370.00 L 249.07 370.00 L 273.00 370.00 L 273.00 393.50 L 273.00 417.00 L 249.04 417.00 L 225.08 417.00 L 224.79 395.75 ZM 362.75 400.39 C361.19,399.91 361.00,398.30 360.99,385.68 C360.98,377.88 360.79,335.52 360.56,291.54 C360.31,241.76 360.52,210.90 361.11,209.79 C362.01,208.11 364.84,208.00 406.03,208.00 L 449.98 208.00 L 450.25 145.75 L 450.52 83.50 L 450.76 145.75 L 451.00 208.00 L 476.25 208.15 C499.32,208.28 505.19,208.41 510.25,208.85 C511.90,208.99 512.00,214.27 512.00,304.50 L 512.00 400.00 L 465.16 400.00 C439.40,400.00 406.21,400.21 391.41,400.46 C376.61,400.72 363.71,400.68 362.75,400.39 ZM 486.30 327.51 C486.41,326.97 485.71,326.38 484.75,326.19 C483.66,325.98 483.00,326.47 483.00,327.50 C483.00,329.24 485.96,329.25 486.30,327.51 ZM 453.00 294.50 C454.06,293.22 453.78,293.00 451.12,293.00 C448.00,293.00 446.89,294.39 449.25,295.34 C451.29,296.16 451.70,296.07 453.00,294.50 ZM 436.00 294.00 C436.00,293.45 435.33,293.00 434.50,293.00 C433.67,293.00 433.00,293.45 433.00,294.00 C433.00,294.55 433.67,295.00 434.50,295.00 C435.33,295.00 436.00,294.55 436.00,294.00 ZM 477.15 290.41 C477.62,290.12 478.00,281.56 478.00,271.40 C478.00,253.10 477.97,252.88 475.55,250.45 C474.20,249.10 471.92,248.00 470.50,248.00 C469.08,248.00 466.80,249.10 465.45,250.45 C463.03,252.88 463.00,253.13 463.00,270.87 C463.00,280.75 463.28,289.55 463.61,290.43 C464.11,291.73 465.32,291.92 470.27,291.48 C473.59,291.17 476.69,290.69 477.15,290.41 ZM 411.79 279.28 C411.95,274.21 411.70,268.62 411.24,266.86 C410.07,262.32 406.12,259.60 402.03,260.49 C397.35,261.52 396.00,265.56 396.00,278.51 L 396.00 289.08 L 403.75 288.79 L 411.50 288.50 L 411.79 279.28 ZM 432.00 280.62 C432.00,272.81 431.83,272.12 429.54,270.62 C426.07,268.35 423.31,268.60 420.45,271.45 C418.32,273.58 418.00,274.82 418.00,280.79 C418.00,284.57 418.30,287.97 418.67,288.33 C419.03,288.70 422.18,289.00 425.67,289.00 L 432.00 289.00 L 432.00 280.62 ZM 456.00 265.00 C456.00,243.33 455.88,241.88 454.00,240.00 C451.62,237.62 445.34,237.30 442.44,239.42 C440.63,240.74 440.48,242.43 440.18,264.42 L 439.87 288.00 L 447.93 288.00 L 456.00 288.00 L 456.00 265.00 Z" fill="rgb(243,234,180)"/>
</g>
</svg>